PathFileType        4      (X/Y/Z)      C:\Users\aurel\Documents\opensim-MSc\data\transformed_83_35.trc
DataRate	CameraRate	NumFrames	NumMarkers	Units	OrigDataRate	OrigDataStartFrame	OrigNumFrames
120.0	120.0	5	41	mm	120.0	1	1048
Frame#	Time	LFWT			RFWT			LBWT			RBWT			LTHI			LKNE			LSHN			LANK			LHEE			LMT5			LTOE			RTHI			RKNE			RSHN			RANK			RHEE			RMT5			RTOE			CLAV			STRN			C7			T10			RBAC			LFHD			RFHD			LBHD			RBHD			LSHO			LUPA			LELB			LFRM			LWRA			LWRB			LFIN			RSHO			RUPA			RELB			RFRM			RWRA			RWRB			RFIN
		X1	Y1	Z1	X2	Y2	Z2	X3	Y3	Z3	X4	Y4	Z4	X5	Y5	Z5	X6	Y6	Z6	X7	Y7	Z7	X8	Y8	Z8	X9	Y9	Z9	X10	Y10	Z10	X11	Y11	Z11	X12	Y12	Z12	X13	Y13	Z13	X14	Y14	Z14	X15	Y15	Z15	X16	Y16	Z16	X17	Y17	Z17	X18	Y18	Z18	X19	Y19	Z19	X20	Y20	Z20	X21	Y21	Z21	X22	Y22	Z22	X23	Y23	Z23	X24	Y24	Z24	X25	Y25	Z25	X26	Y26	Z26	X27	Y27	Z27	X28	Y28	Z28	X29	Y29	Z29	X30	Y30	Z30	X31	Y31	Z31	X32	Y32	Z32	X33	Y33	Z33	X34	Y34	Z34	X35	Y35	Z35	X36	Y36	Z36	X37	Y37	Z37	X38	Y38	Z38	X39	Y39	Z39	X40	Y40	Z40	X41	Y41	Z41
1	0.0	-1693.71484	880.3516200000003	348.87328999999994	-1693.9563	874.3897700000002	613.80542	-1858.4562999999998	959.5902700000003	396.42214999999993	-1852.9246799999999	962.8335000000002	537.0446799999999	-1768.71838	589.6355000000002	303.70629999999994	-1779.78845	437.1260400000002	331.07578	-1824.69751	206.94720000000027	314.15775	-1858.44763	77.12300000000025	339.28195	-1914.81641	60.790380000000255	382.78305	-1760.08716	33.92972000000024	312.86359	-1721.01331	53.747050000000236	399.72791	-1774.99548	665.8575400000002	644.17346	-1786.00623	439.88577000000026	608.67413	-1823.95984	329.6055900000003	631.42072	-1854.99023	58.510770000000264	566.29193	-1919.93347	16.511040000000268	519.09149	-1751.20984	33.76458000000025	601.0957	-1712.39819	52.39593000000024	524.99011	-1685.0161099999998	1315.8350800000003	446.72204999999997	-1669.9940199999999	1137.8385000000003	452.72750999999994	-1816.4217499999997	1390.7943100000002	443.93969999999996	-1887.5729999999999	1179.6428200000003	458.0936899999999	-1878.6944599999997	1271.6313500000003	532.4287699999999	-1625.1640599999998	1562.3215300000002	374.6228599999999	-1645.2830799999997	1556.9641100000001	535.1717499999999	-1774.7811299999998	1515.7940700000001	382.02562999999986	-1791.5836199999999	1514.9177200000001	492.6868599999999	-1776.6008299999999	1381.9342000000001	303.1644299999999	-1823.3303199999998	1164.7406000000003	227.1577499999999	-1845.1979999999999	1067.0166000000002	224.88955999999993	-1853.70776	901.0952800000002	214.68432999999993	-1731.91113	799.3057900000002	229.71222999999995	-1867.9425	797.3781700000002	172.37143999999995	-1783.88733	733.2218000000003	190.76314999999994	-1767.4040499999999	1379.4184600000003	598.1967799999999	-1798.0887499999997	1268.0828900000001	673.7131299999999	-1855.5079299999998	1077.1811500000001	680.3458299999999	-1863.2819799999997	1002.2063000000003	673.9187599999999	-1700.09363	821.5553600000002	720.96002	-1841.11926	805.2857700000002	753.99194	-1806.89014	768.3176300000002	748.59619
2	0.008	-1693.94214	880.3045700000002	348.91421999999994	-1693.90625	874.2430400000002	614.0907	-1858.6769999999997	959.7671500000002	396.72191999999995	-1852.9254199999998	962.7735600000002	537.3384999999998	-1768.68335	589.6367800000003	303.79207999999994	-1779.7821	437.3311200000002	331.12601	-1824.69006	206.94994000000025	314.14737	-1858.38367	77.21136000000024	339.207	-1914.86462	60.76292000000026	382.77835	-1760.08911	33.947840000000234	312.87927	-1721.0061	53.701340000000236	399.66245	-1774.83264	665.7004400000002	644.22113	-1786.00623	439.88577000000026	608.67413	-1823.98743	329.67053000000027	631.75201	-1854.9823	58.499200000000265	566.23053	-1920.06555	16.559570000000267	519.02399	-1751.18372	33.67939000000025	601.10883	-1712.47937	52.34542000000024	524.95966	-1685.0143999999998	1315.7943100000002	446.72579999999994	-1669.9930399999998	1137.8752400000003	452.82897999999994	-1816.2287599999997	1390.8291000000002	444.0765099999999	-1887.6384299999997	1179.8260500000001	458.4212299999999	-1878.5255099999997	1271.6849400000003	532.7939499999999	-1625.0549299999998	1563.9869400000002	375.3263199999999	-1646.0638399999998	1557.1405000000002	536.3409399999999	-1774.3415499999999	1515.8317900000002	382.45925999999986	-1791.9659399999998	1515.3692600000002	492.8089899999999	-1776.7261999999998	1382.1449000000002	303.28795999999994	-1823.7049599999998	1164.9736300000002	227.42757999999992	-1845.5187999999998	1067.2706300000002	225.29047999999995	-1854.23657	901.4196200000002	214.92435999999995	-1732.75757	799.3941700000003	229.27054999999993	-1868.58203	797.5795300000002	172.46053999999995	-1784.47717	733.3331900000002	190.82952999999995	-1767.2574499999998	1379.4837600000003	598.3384399999999	-1797.9631299999999	1268.2628200000001	673.9806499999999	-1855.2917499999999	1077.2911400000003	680.7333999999998	-1863.2839399999998	1002.1983000000002	674.1718099999999	-1700.34717	821.4899900000003	721.48376	-1841.43799	805.6303700000002	754.52655	-1807.30786	768.4513500000003	750.06366
3	0.017	-1693.94214	880.3045700000002	348.91421999999994	-1693.88831	874.1057700000002	614.35236	-1858.7574499999998	959.9229100000002	396.95174999999995	-1853.1458699999998	963.0053700000002	537.6686999999998	-1768.64087	589.6483200000002	303.98159999999996	-1780.20776	437.44650000000024	331.1467	-1824.66589	206.96913000000026	314.15692	-1858.33301	77.18427000000024	339.3255	-1914.97302	60.80246000000026	382.758	-1760.13293	33.935060000000234	312.88583	-1721.07019	53.655470000000236	399.79639	-1774.57239	665.5607900000002	644.25464	-1786.00623	439.88577000000026	608.67413	-1824.14001	329.7879600000003	631.8949	-1855.0907	58.61761000000026	566.24347	-1920.12207	16.584650000000266	518.9458	-1751.14063	33.44712000000025	601.15814	-1712.55847	52.40752000000024	524.95929	-1684.9102799999998	1315.8977100000002	446.74712999999997	-1669.9169899999997	1137.9034400000003	452.92504999999994	-1816.0931399999997	1390.9226100000003	444.23583999999994	-1887.7812499999998	1180.1046100000003	458.77169999999995	-1878.5676299999998	1271.8796400000003	533.2745399999999	-1624.9456799999998	1565.6523400000003	376.02974999999986	-1646.1774899999998	1557.0808100000002	537.1509999999998	-1774.1285399999997	1515.9683800000003	382.8873299999999	-1790.5382099999997	1514.6156000000003	493.0592299999999	-1776.8813499999999	1382.2701400000003	303.51073999999994	-1823.9945099999998	1165.1467300000002	227.65896999999993	-1845.8691399999998	1067.4345700000001	225.53660999999994	-1854.69055	901.4380500000002	214.97481999999994	-1733.59131	799.6160300000003	229.02887999999993	-1868.93359	797.6012600000003	172.48781999999994	-1784.85107	733.4021600000002	190.97356999999994	-1766.9693599999998	1379.5018300000002	598.4935899999999	-1797.6942099999999	1268.2810100000002	674.2230799999999	-1855.1986099999997	1077.3181200000001	681.1777999999999	-1863.4189499999998	1002.3103600000002	674.4982899999999	-1700.55042	821.4035000000002	721.94995	-1841.6012	805.7237500000002	755.05701	-1807.53027	768.5888100000002	750.87012
4	0.025	-1693.94214	880.3045700000002	348.91421999999994	-1694.17969	874.0570700000002	614.41022	-1858.9205299999999	960.0302700000002	397.1560099999999	-1853.3049299999998	963.0778800000003	537.7464599999998	-1768.9231	589.8393600000003	304.32195999999993	-1780.17224	437.6669300000002	331.04465	-1824.6322	207.00208000000026	314.19675	-1858.38611	77.11897000000025	339.42035	-1915.00366	60.88627000000026	382.78873	-1760.09521	33.85673000000023	312.99176	-1721.07727	53.701180000000235	399.86185	-1774.43298	665.5533400000003	644.32111	-1786.00623	439.88577000000026	608.67413	-1824.25171	329.7955600000003	631.76929	-1855.2157	58.83110000000026	566.56592	-1920.1532	16.679010000000268	519.0011	-1751.07983	33.37169000000025	601.20306	-1712.60999	52.47356000000024	524.98804	-1684.7336399999997	1316.1641800000002	446.80352999999997	-1669.8181199999997	1137.9361600000002	453.10833999999994	-1816.1762699999997	1391.0318600000003	444.59664999999995	-1887.8602299999998	1180.2085000000002	459.01500999999996	-1878.4996299999998	1271.8333700000003	533.4971299999999	-1624.7054399999997	1565.1171900000002	376.06304999999986	-1645.7102099999997	1556.9111300000002	537.2880899999999	-1774.1227999999999	1516.0618900000002	382.9961199999999	-1790.5836199999999	1514.9174800000003	493.2335199999999	-1776.9892599999998	1382.3011500000002	303.73519999999996	-1824.1843299999998	1165.3083500000002	227.6911599999999	-1846.4036899999999	1067.7253400000002	225.59664999999995	-1854.93994	901.1981200000002	215.06850999999995	-1734.1217	799.7905300000002	228.93032999999994	-1869.42578	797.8377700000002	172.59337999999994	-1785.39355	733.6642500000003	190.89765999999995	-1766.5737299999998	1379.4162600000002	598.5640899999999	-1797.5449199999998	1268.3421600000001	674.4672199999999	-1855.2752699999999	1077.4830300000003	681.5972899999999	-1863.6772499999997	1002.6850600000002	674.9888899999999	-1700.58154	821.3703600000002	722.23822	-1841.86426	805.8419200000002	755.56775	-1807.68921	768.6164600000002	751.12024
5	0.033	-1693.94214	880.3045700000002	348.91421999999994	-1694.48682	873.9189500000002	614.51215	-1858.8154299999999	959.6317100000002	397.39760999999993	-1853.3426499999998	962.9353600000002	537.8306299999999	-1769.32397	590.0056800000002	304.64574999999996	-1780.03247	437.79160000000024	330.88843	-1824.61548	207.01855000000026	314.21664	-1858.44873	77.12666000000024	339.4126	-1914.85352	60.863180000000256	382.85446	-1759.97388	33.840190000000234	313.11588	-1721.02209	53.727500000000234	399.84821	-1774.36768	665.5365000000003	644.6004	-1786.07422	439.8433200000003	608.70795	-1824.34082	329.7283600000003	631.65747	-1855.18042	58.849820000000264	566.7005	-1920.42529	16.807950000000268	519.08026	-1750.9574	33.334810000000246	601.23383	-1712.5752	52.396900000000244	524.96838	-1684.7946799999997	1316.3734100000001	446.87172999999996	-1669.7387699999997	1137.9807100000003	453.21340999999995	-1816.3255599999998	1391.1462400000003	444.89345999999995	-1887.8961199999999	1180.2133800000001	459.20379999999994	-1878.3310499999998	1271.7005600000002	533.6288499999999	-1624.4429899999998	1564.2727100000002	375.8814999999999	-1645.2394999999997	1556.5441900000003	537.0555999999999	-1773.9706999999999	1516.0668900000003	383.08587999999986	-1790.5743399999997	1515.1986100000001	493.5229199999999	-1777.1409899999999	1382.3343500000003	303.98922999999996	-1824.3930699999999	1165.3911100000003	227.8121199999999	-1847.0407699999998	1068.1673600000001	225.52767999999995	-1855.12695	901.0911300000002	215.36176999999995	-1734.41174	799.9573400000003	228.85344999999995	-1870.04688	798.1525300000002	172.82636999999994	-1785.89014	734.1582600000003	190.66038999999995	-1766.2781999999997	1379.4378700000002	598.7269899999999	-1797.5942399999997	1268.6131600000003	674.7432299999999	-1855.3676799999998	1077.7813700000002	681.9591699999999	-1863.8216599999998	1002.9508100000003	675.4677099999999	-1700.61353	821.2955300000002	722.51483	-1842.0415	806.0488300000002	755.97064	-1807.66772	768.7995600000003	751.32104
